<svg width="295" height="286" viewBox="0 0 295 286" fill="none" xmlns="http://www.w3.org/2000/svg">
<g id="logo">
<g id="Ellipse 16" filter="url(#filter0_i_221_11)">
<ellipse cx="143.232" cy="131.965" rx="143.232" ry="131.965" fill="white"/>
</g>
<g id="Star 1" filter="url(#filter1_i_221_11)">
<path d="M134.636 151.664C139.328 138.478 157.976 138.478 162.668 151.664L166.49 162.405C168.6 168.334 174.213 172.295 180.506 172.295H189.787C204.524 172.295 210.292 191.422 198.011 199.569L192.899 202.961C187.205 206.738 184.816 213.908 187.107 220.345L189.595 227.339C194.389 240.811 179.27 252.629 167.355 244.724L156.876 237.772C151.892 234.465 145.412 234.465 140.427 237.772L129.949 244.724C118.033 252.629 102.914 240.811 107.708 227.339L110.197 220.345C112.487 213.908 110.099 206.738 104.405 202.961L99.2922 199.569C87.0121 191.422 92.7799 172.295 107.517 172.295H116.797C123.091 172.295 128.704 168.334 130.814 162.405L134.636 151.664Z" fill="#F57D7D"/>
</g>
<path id="Ellipse 1" d="M146.232 219.797C137.27 225.582 126.79 228.958 115.739 229.62C104.687 230.282 93.4124 228.209 82.9319 223.589C72.4513 218.969 63.0953 211.947 55.7084 203.157C48.3216 194.368 43.1366 184.087 40.6216 173.243L106.127 163.762L146.232 219.797Z" fill="#F0BBBB"/>
<g id="Ellipse 2" filter="url(#filter2_d_221_11)">
<path d="M229.391 149.664C234.09 159.111 236.006 169.426 234.966 179.676C233.925 189.927 229.962 199.792 223.433 208.379C216.903 216.967 208.015 224.007 197.568 228.863C187.122 233.72 175.448 236.241 163.599 236.198L163.896 174.236L229.391 149.664Z" fill="#B04B4B"/>
</g>
<g id="Polygon 1" filter="url(#filter3_d_221_11)">
<path d="M95.2894 92.741C101.265 85.9131 111.888 85.9131 117.864 92.741L172.992 155.727C181.481 165.425 174.593 180.606 161.705 180.606H51.4486C38.5602 180.606 31.6729 165.425 40.1612 155.727L95.2894 92.741Z" fill="#733535"/>
</g>
<g id="Polygon 2" filter="url(#filter4_d_221_11)">
<path d="M198.569 84.2165C207.748 78.0969 220.113 83.0389 221.922 93.5493L235.4 171.881C237.385 183.413 225.387 192.824 214.333 188.406L132.452 155.681C121.399 151.264 120.097 136.538 130.167 129.824L198.569 84.2165Z" fill="#DD5959"/>
</g>
<g id="Ellipse 3" filter="url(#filter5_d_221_11)">
<ellipse cx="148.652" cy="98.3757" rx="34.1479" ry="33.5871" fill="#FEB9B9"/>
</g>
<rect id="Rectangle 2" width="42.8931" height="77.1588" rx="21.4465" transform="matrix(0.749369 -0.662152 0.699846 0.714294 60.8428 37.5979)" fill="#58B948"/>
</g>
<defs>
<filter id="filter0_i_221_11" x="0" y="0" width="286.463" height="267.929" filterUnits="userSpaceOnUse" color-interpolation-filters="sRGB">
<feFlood flood-opacity="0" result="BackgroundImageFix"/>
<feBlend mode="normal" in="SourceGraphic" in2="BackgroundImageFix" result="shape"/>
<feColorMatrix in="SourceAlpha" type="matrix" values="0 0 0 0 0 0 0 0 0 0 0 0 0 0 0 0 0 0 127 0" result="hardAlpha"/>
<feOffset dy="4"/>
<feGaussianBlur stdDeviation="2"/>
<feComposite in2="hardAlpha" operator="arithmetic" k2="-1" k3="1"/>
<feColorMatrix type="matrix" values="0 0 0 0 0 0 0 0 0 0 0 0 0 0 0 0 0 0 0.25 0"/>
<feBlend mode="normal" in2="shape" result="effect1_innerShadow_221_11"/>
</filter>
<filter id="filter1_i_221_11" x="92.6122" y="141.774" width="112.079" height="109.496" filterUnits="userSpaceOnUse" color-interpolation-filters="sRGB">
<feFlood flood-opacity="0" result="BackgroundImageFix"/>
<feBlend mode="normal" in="SourceGraphic" in2="BackgroundImageFix" result="shape"/>
<feColorMatrix in="SourceAlpha" type="matrix" values="0 0 0 0 0 0 0 0 0 0 0 0 0 0 0 0 0 0 127 0" result="hardAlpha"/>
<feOffset dy="4"/>
<feGaussianBlur stdDeviation="2"/>
<feComposite in2="hardAlpha" operator="arithmetic" k2="-1" k3="1"/>
<feColorMatrix type="matrix" values="0 0 0 0 0 0 0 0 0 0 0 0 0 0 0 0 0 0 0.25 0"/>
<feBlend mode="normal" in2="shape" result="effect1_innerShadow_221_11"/>
</filter>
<filter id="filter2_d_221_11" x="159.599" y="149.664" width="79.6423" height="94.5344" filterUnits="userSpaceOnUse" color-interpolation-filters="sRGB">
<feFlood flood-opacity="0" result="BackgroundImageFix"/>
<feColorMatrix in="SourceAlpha" type="matrix" values="0 0 0 0 0 0 0 0 0 0 0 0 0 0 0 0 0 0 127 0" result="hardAlpha"/>
<feOffset dy="4"/>
<feGaussianBlur stdDeviation="2"/>
<feComposite in2="hardAlpha" operator="out"/>
<feColorMatrix type="matrix" values="0 0 0 0 0 0 0 0 0 0 0 0 0 0 0 0 0 0 0.25 0"/>
<feBlend mode="normal" in2="BackgroundImageFix" result="effect1_dropShadow_221_11"/>
<feBlend mode="normal" in="SourceGraphic" in2="effect1_dropShadow_221_11" result="shape"/>
</filter>
<filter id="filter3_d_221_11" x="32.4193" y="87.6201" width="148.315" height="100.986" filterUnits="userSpaceOnUse" color-interpolation-filters="sRGB">
<feFlood flood-opacity="0" result="BackgroundImageFix"/>
<feColorMatrix in="SourceAlpha" type="matrix" values="0 0 0 0 0 0 0 0 0 0 0 0 0 0 0 0 0 0 127 0" result="hardAlpha"/>
<feOffset dy="4"/>
<feGaussianBlur stdDeviation="2"/>
<feComposite in2="hardAlpha" operator="out"/>
<feColorMatrix type="matrix" values="0 0 0 0 0 0 0 0 0 0 0 0 0 0 0 0 0 0 0.25 0"/>
<feBlend mode="normal" in2="BackgroundImageFix" result="effect1_dropShadow_221_11"/>
<feBlend mode="normal" in="SourceGraphic" in2="effect1_dropShadow_221_11" result="shape"/>
</filter>
<filter id="filter4_d_221_11" x="119.331" y="81.5471" width="120.286" height="115.97" filterUnits="userSpaceOnUse" color-interpolation-filters="sRGB">
<feFlood flood-opacity="0" result="BackgroundImageFix"/>
<feColorMatrix in="SourceAlpha" type="matrix" values="0 0 0 0 0 0 0 0 0 0 0 0 0 0 0 0 0 0 127 0" result="hardAlpha"/>
<feOffset dy="4"/>
<feGaussianBlur stdDeviation="2"/>
<feComposite in2="hardAlpha" operator="out"/>
<feColorMatrix type="matrix" values="0 0 0 0 0 0 0 0 0 0 0 0 0 0 0 0 0 0 0.25 0"/>
<feBlend mode="normal" in2="BackgroundImageFix" result="effect1_dropShadow_221_11"/>
<feBlend mode="normal" in="SourceGraphic" in2="effect1_dropShadow_221_11" result="shape"/>
</filter>
<filter id="filter5_d_221_11" x="110.504" y="64.7886" width="76.2958" height="75.1742" filterUnits="userSpaceOnUse" color-interpolation-filters="sRGB">
<feFlood flood-opacity="0" result="BackgroundImageFix"/>
<feColorMatrix in="SourceAlpha" type="matrix" values="0 0 0 0 0 0 0 0 0 0 0 0 0 0 0 0 0 0 127 0" result="hardAlpha"/>
<feOffset dy="4"/>
<feGaussianBlur stdDeviation="2"/>
<feComposite in2="hardAlpha" operator="out"/>
<feColorMatrix type="matrix" values="0 0 0 0 0 0 0 0 0 0 0 0 0 0 0 0 0 0 0.25 0"/>
<feBlend mode="normal" in2="BackgroundImageFix" result="effect1_dropShadow_221_11"/>
<feBlend mode="normal" in="SourceGraphic" in2="effect1_dropShadow_221_11" result="shape"/>
</filter>
</defs>
</svg>
