<svg width="522" height="78" viewBox="0 0 522 78" fill="none" xmlns="http://www.w3.org/2000/svg">
<g clip-path="url(#clip0_61_458)">
<path fill-rule="evenodd" clip-rule="evenodd" d="M62.999 0.500244C83.7103 0.500244 100.499 17.289 100.499 38.0002C100.499 54.1252 90.3215 67.8727 76.0415 73.1677C75.8001 73.3003 75.5448 73.406 75.2803 73.4827L74.924 73.5652C71.0799 74.8513 67.0525 75.5048 62.999 75.5002C42.2878 75.5002 25.499 58.7115 25.499 38.0002C25.499 17.289 42.2878 0.500244 62.999 0.500244ZM73.9115 10.0477L73.2515 13.3515C72.8261 15.4778 71.7953 17.4359 70.2831 18.99C68.7708 20.5442 66.8417 21.6281 64.7278 22.1115L63.224 22.4565C62.2913 22.6692 61.4751 23.2303 60.9425 24.025C60.4099 24.8197 60.2012 25.7879 60.359 26.7315L61.0153 30.6615C61.2243 31.9212 61.1083 33.2134 60.6782 34.4158C60.2481 35.6181 59.5181 36.6907 58.5575 37.5319C57.5968 38.3731 56.4372 38.9552 55.1887 39.2229C53.9401 39.4905 52.6439 39.435 51.4228 39.0615L46.5853 37.584C44.2811 36.8796 42.2639 35.4541 40.8307 33.5173C39.3975 31.5805 38.624 29.2347 38.624 26.8252V20.5065C35.0734 25.4499 33.1103 31.3564 32.9955 37.4418C32.8807 43.5272 34.6195 49.5035 37.9812 54.5774C41.3429 59.6512 46.1684 63.5825 51.8169 65.8494C57.4655 68.1162 63.6699 68.6113 69.6065 67.269L67.4278 59.649C67.2518 59.0365 66.9227 58.479 66.4715 58.029L61.829 53.3827C61.2695 52.8235 60.8342 52.1525 60.5516 51.4136C60.269 50.6747 60.1454 49.8845 60.1889 49.0947C60.2324 48.3048 60.4421 47.5329 60.8042 46.8296C61.1663 46.1262 61.6727 45.5071 62.2903 45.0127L68.159 40.3215C69.2779 39.4264 70.6297 38.8706 72.0545 38.7198C73.4793 38.5689 74.9176 38.8293 76.199 39.4702L81.7115 42.2265C83.3678 43.0548 84.7941 44.2792 85.8636 45.7909C86.9332 47.3027 87.613 49.0552 87.8428 50.8927L88.2553 54.1965C90.6516 50.458 92.1885 46.2344 92.7551 41.8301C93.3217 37.4259 92.9039 32.9507 91.5317 28.7275C90.1596 24.5042 87.8674 20.6381 84.8204 17.4079C81.7734 14.1777 78.0476 11.6639 73.9115 10.0477ZM72.8428 46.179L68.6128 49.5615L71.7778 52.7227C72.9332 53.8797 73.8226 55.2745 74.384 56.8102L74.639 57.5902L76.6753 64.7077C77.9878 64.0327 79.2478 63.264 80.4403 62.4127L81.614 61.5277L80.4028 51.8227C80.3358 51.2882 80.1544 50.7743 79.871 50.3162C79.5875 49.858 79.2087 49.4663 78.7603 49.1677L78.3553 48.9352L72.8428 46.179ZM62.999 8.00024C56.9698 7.99082 51.079 9.8067 46.1015 13.209C46.1165 13.344 46.124 13.4827 46.124 13.6252V26.8252C46.1233 27.6285 46.3805 28.4108 46.8578 29.0568C47.3351 29.7029 48.0073 30.1786 48.7753 30.414L53.6165 31.8915L52.9603 27.9615C52.4886 25.1325 53.1153 22.2301 54.7121 19.8477C56.309 17.4653 58.7555 15.7828 61.5515 15.144L63.0553 14.8027C63.7608 14.6415 64.4046 14.2795 64.909 13.7605C65.4133 13.2415 65.7568 12.5876 65.8978 11.8777L66.6328 8.21774C65.427 8.0725 64.2135 7.99987 62.999 8.00024Z" fill="url(#paint0_linear_61_458)"/>
<path d="M154.815 29.036C154.815 27.16 154.078 25.887 152.604 25.217C151.175 24.5023 148.763 24.145 145.368 24.145V34.396C147.467 34.396 149.165 34.2397 150.46 33.927C151.8 33.6143 152.85 33.0783 153.609 32.319C154.413 31.515 154.815 30.4207 154.815 29.036ZM155.686 46.925C155.686 45.451 155.306 44.312 154.547 43.508C153.788 42.704 152.693 42.1457 151.264 41.833C149.835 41.4757 147.869 41.297 145.368 41.297V52.888C148.852 52.888 151.443 52.4637 153.14 51.615C154.837 50.7217 155.686 49.1583 155.686 46.925ZM163.927 38.148C168.081 40.6047 170.158 43.8877 170.158 47.997C170.158 49.7837 169.801 51.5033 169.086 53.156C168.416 54.764 167.389 56.238 166.004 57.578C164.664 58.918 162.877 59.99 160.644 60.794C158.411 61.5533 155.887 61.933 153.073 61.933H137.529C134.804 61.933 132.839 61.2407 131.633 59.856C130.472 58.4713 129.891 55.9923 129.891 52.419V24.078C129.891 22.5593 130.159 21.2193 130.695 20.058C131.231 18.8967 132.08 17.9587 133.241 17.244C134.447 16.5293 135.876 16.172 137.529 16.172H152.872C157.339 16.2167 161.046 17.445 163.994 19.857C166.987 22.2243 168.483 25.284 168.483 29.036C168.483 30.242 168.371 31.314 168.148 32.252C167.969 33.1453 167.679 33.9493 167.277 34.664C166.875 35.3787 166.406 36.004 165.87 36.54C165.334 37.076 164.686 37.612 163.927 38.148ZM191.625 54.831C191.625 57.511 191.066 59.387 189.95 60.459C188.833 61.4863 186.845 62 183.987 62C181.351 62 179.565 61.397 178.627 60.191C177.689 58.9403 177.22 56.908 177.22 54.094V37.612C177.22 36.0933 177.488 34.7757 178.024 33.659C178.56 32.4977 179.341 31.6043 180.369 30.979C181.396 30.3537 182.602 30.041 183.987 30.041C187.381 30.041 189.615 31.0237 190.687 32.989C193.277 31.0237 195.779 30.041 198.191 30.041C202.881 30.041 205.226 32.2743 205.226 36.741C205.226 38.5277 204.712 39.9793 203.685 41.096C202.657 42.2127 201.317 42.771 199.665 42.771C198.682 42.771 197.878 42.57 197.253 42.168C196.672 41.766 196.114 41.364 195.578 40.962C195.086 40.56 194.506 40.359 193.836 40.359C192.853 40.359 192.116 40.694 191.625 41.364V54.831ZM220.161 62.402C216.632 62.402 213.707 60.9727 211.384 58.114C209.061 55.2107 207.9 51.2577 207.9 46.255C207.9 41.163 209.039 37.1207 211.317 34.128C213.64 31.0907 216.588 29.572 220.161 29.572C223.779 29.572 227.129 30.845 230.211 33.391C231.417 31.1577 233.36 30.041 236.04 30.041C238.452 30.041 240.328 30.577 241.668 31.649C243.008 32.6763 243.678 34.597 243.678 37.411V54.831C243.678 57.511 243.12 59.387 242.003 60.459C240.886 61.4863 238.921 62 236.107 62C233.159 62 231.216 61.1737 230.278 59.521C227.419 61.4417 224.047 62.402 220.161 62.402ZM229.273 39.823C228.514 38.5277 227.531 37.88 226.325 37.88C225.164 37.88 224.226 38.7287 223.511 40.426C222.796 42.1233 222.439 44.0663 222.439 46.255C222.439 48.3097 222.774 50.141 223.444 51.749C224.114 53.357 225.052 54.161 226.258 54.161C227.509 54.161 228.514 53.558 229.273 52.352V39.823ZM265.723 29.572C269.877 29.572 273.338 30.4207 276.108 32.118C278.877 33.8153 280.262 35.669 280.262 37.679C280.262 38.2597 280.016 38.7957 279.525 39.287C279.033 39.7783 278.408 40.024 277.649 40.024C276.979 40.024 276.242 39.8007 275.438 39.354C274.634 38.8627 273.874 38.349 273.16 37.813C272.445 37.277 271.507 36.7857 270.346 36.339C269.184 35.8923 267.956 35.669 266.661 35.669C264.919 35.669 264.048 36.205 264.048 37.277C264.048 38.0363 264.494 38.6393 265.388 39.086C266.281 39.5327 267.576 40.0017 269.274 40.493C271.016 40.9843 272.333 41.4533 273.227 41.9C276.577 43.1953 278.877 44.6023 280.128 46.121C281.378 47.595 282.004 49.5603 282.004 52.017C282.004 53.223 281.669 54.429 280.999 55.635C280.329 56.7963 279.324 57.913 277.984 58.985C276.644 60.0123 274.812 60.861 272.49 61.531C270.212 62.1563 267.599 62.469 264.651 62.469C258.889 62.469 254.578 61.1513 251.72 58.516C250.335 57.2207 249.643 55.8807 249.643 54.496C249.643 53.6473 249.911 52.9773 250.447 52.486C251.027 51.9947 251.831 51.749 252.859 51.749C253.886 51.749 255.449 52.2627 257.549 53.29C259.648 54.2727 261.591 54.764 263.378 54.764C265.834 54.764 267.063 54.161 267.063 52.955C267.063 52.3297 266.415 51.8383 265.12 51.481C263.824 51.079 262.127 50.61 260.028 50.074C257.928 49.538 256.253 48.868 255.003 48.064C253.037 47.2153 251.653 46.1657 250.849 44.915C250.089 43.6197 249.71 42.0563 249.71 40.225C249.71 37.0983 251.184 34.5523 254.132 32.587C257.124 30.577 260.988 29.572 265.723 29.572ZM287.399 20.728C287.399 19.254 288.024 18.048 289.275 17.11C290.57 16.1273 292.379 15.636 294.702 15.636C299.57 15.636 302.005 17.3333 302.005 20.728C302.005 22.604 301.379 23.9217 300.129 24.681C298.923 25.4403 297.114 25.82 294.702 25.82C292.602 25.82 290.86 25.418 289.476 24.614C288.091 23.81 287.399 22.5147 287.399 20.728ZM301.938 54.831C301.938 57.511 301.379 59.387 300.263 60.459C299.146 61.4863 297.181 62 294.367 62C291.731 62 289.922 61.397 288.94 60.191C288.002 58.9403 287.533 56.908 287.533 54.094V37.612C287.533 35.334 288.136 33.5027 289.342 32.118C290.592 30.7333 292.245 30.041 294.3 30.041C296.712 30.041 298.588 30.577 299.928 31.649C301.268 32.6763 301.938 34.597 301.938 37.411V54.831ZM322.754 51.883C322.754 55.501 322.151 58.0917 320.945 59.655C319.739 61.2183 317.885 62 315.384 62C312.882 62 311.051 61.3077 309.89 59.923C308.728 58.4937 308.148 55.9923 308.148 52.419L308.014 24.145C308.014 22.9837 308.125 21.9563 308.349 21.063C308.617 20.1697 308.952 19.4103 309.354 18.785C309.8 18.1597 310.336 17.646 310.962 17.244C311.587 16.842 312.257 16.5517 312.972 16.373C313.731 16.1943 314.535 16.105 315.384 16.105C317.84 16.105 319.672 16.5963 320.878 17.579C322.128 18.5617 322.754 20.5493 322.754 23.542V51.883ZM376.826 51.95C376.826 54.496 376.514 56.5283 375.888 58.047C375.263 59.521 374.392 60.5483 373.275 61.129C372.203 61.7097 370.774 62 368.987 62C366.352 62 364.431 61.3077 363.225 59.923C362.064 58.4937 361.461 55.9923 361.416 52.419L361.282 27.696H355.587C352.773 27.696 350.652 27.2493 349.222 26.356C347.838 25.4627 347.145 23.877 347.145 21.599C347.145 20.2143 347.413 19.12 347.949 18.316C348.53 17.512 349.379 16.9537 350.495 16.641C351.612 16.2837 353.108 16.105 354.984 16.105H383.66C386.162 16.105 387.971 16.5517 389.087 17.445C390.204 18.3383 390.762 19.8793 390.762 22.068C390.762 23.542 390.427 24.7033 389.757 25.552C389.132 26.356 388.283 26.9143 387.211 27.227C386.139 27.5397 384.755 27.696 383.057 27.696H376.826V51.95ZM407.909 46.121C407.909 43.7983 407.618 41.766 407.038 40.024C406.457 38.2373 405.608 37.344 404.492 37.344C403.732 37.344 403.062 37.7907 402.482 38.684C401.901 39.5773 401.477 40.6717 401.209 41.967C400.941 43.2623 400.807 44.647 400.807 46.121C400.807 48.399 401.119 50.409 401.745 52.151C402.37 53.8483 403.263 54.697 404.425 54.697C405.586 54.697 406.457 53.8483 407.038 52.151C407.618 50.4537 407.909 48.4437 407.909 46.121ZM404.425 62.469C400.941 62.469 397.792 61.8437 394.978 60.593C392.208 59.3423 389.975 57.4663 388.278 54.965C386.625 52.4637 385.799 49.538 385.799 46.188C385.799 41.096 387.541 37.0537 391.025 34.061C394.509 31.0683 398.975 29.572 404.425 29.572C409.874 29.572 414.318 31.0683 417.758 34.061C421.197 37.0537 422.917 41.096 422.917 46.188C422.917 51.2353 421.152 55.2107 417.624 58.114C414.14 61.0173 409.74 62.469 404.425 62.469ZM443.208 47.863C443.208 50.409 444.191 51.682 446.156 51.682C446.826 51.682 447.407 51.481 447.898 51.079C448.434 50.6323 448.836 50.0293 449.104 49.27C449.372 48.5107 449.506 47.6397 449.506 46.657V37.679C449.506 36.1603 449.774 34.8427 450.31 33.726C450.846 32.5647 451.628 31.6713 452.655 31.046C453.682 30.4207 454.888 30.108 456.273 30.108C458.685 30.108 460.561 30.644 461.901 31.716C463.241 32.7433 463.911 34.664 463.911 37.478V54.898C463.911 57.6227 463.353 59.4987 462.236 60.526C461.119 61.5533 459.154 62.067 456.34 62.067C455.134 62.067 454.107 61.9553 453.258 61.732C452.409 61.464 451.717 61.0843 451.181 60.593C450.69 60.1017 450.31 59.454 450.042 58.65C448.211 59.856 446.268 60.7047 444.213 61.196C442.203 61.6873 439.947 61.933 437.446 61.933C434.275 61.933 431.997 60.7047 430.612 58.248C429.227 55.7467 428.535 51.6597 428.535 45.987C428.535 43.173 428.602 40.895 428.736 39.153C428.87 37.3663 429.071 35.8477 429.339 34.597C429.652 33.3017 430.098 32.3413 430.679 31.716C431.304 31.0907 432.019 30.644 432.823 30.376C433.672 30.108 434.766 29.974 436.106 29.974C438.607 29.974 440.394 30.443 441.466 31.381C442.583 32.319 443.141 33.726 443.141 35.602L443.208 47.863ZM484.815 54.831C484.815 57.511 484.257 59.387 483.14 60.459C482.023 61.4863 480.036 62 477.177 62C474.542 62 472.755 61.397 471.817 60.191C470.879 58.9403 470.41 56.908 470.41 54.094V37.612C470.41 36.0933 470.678 34.7757 471.214 33.659C471.75 32.4977 472.532 31.6043 473.559 30.979C474.586 30.3537 475.792 30.041 477.177 30.041C480.572 30.041 482.805 31.0237 483.877 32.989C486.468 31.0237 488.969 30.041 491.381 30.041C496.071 30.041 498.416 32.2743 498.416 36.741C498.416 38.5277 497.902 39.9793 496.875 41.096C495.848 42.2127 494.508 42.771 492.855 42.771C491.872 42.771 491.068 42.57 490.443 42.168C489.862 41.766 489.304 41.364 488.768 40.962C488.277 40.56 487.696 40.359 487.026 40.359C486.043 40.359 485.306 40.694 484.815 41.364V54.831Z" fill="url(#paint1_linear_61_458)"/>
</g>
<defs>
<linearGradient id="paint0_linear_61_458" x1="62.999" y1="0.500244" x2="62.999" y2="75.5003" gradientUnits="userSpaceOnUse">
<stop stop-color="#4FE355"/>
<stop offset="1" stop-color="#188B1C"/>
</linearGradient>
<linearGradient id="paint1_linear_61_458" x1="315" y1="0" x2="315" y2="64" gradientUnits="userSpaceOnUse">
<stop stop-color="#4FE355"/>
<stop offset="1" stop-color="#188B1C"/>
</linearGradient>
<clipPath id="clip0_61_458">
<rect width="521.361" height="77.357" fill="white"/>
</clipPath>
</defs>
</svg>
