<svg width="184" height="33" viewBox="0 0 184 33" fill="none" xmlns="http://www.w3.org/2000/svg">
<g clip-path="url(#clip0_207_219)">
<path d="M50.125 11.7C50.125 11 49.85 10.525 49.3 10.275C48.7667 10.0083 47.8667 9.875 46.6 9.875V13.7C47.3833 13.7 48.0167 13.6417 48.5 13.525C49 13.4083 49.3917 13.2083 49.675 12.925C49.975 12.625 50.125 12.2167 50.125 11.7ZM50.45 18.375C50.45 17.825 50.3083 17.4 50.025 17.1C49.7417 16.8 49.3333 16.5917 48.8 16.475C48.2667 16.3417 47.5333 16.275 46.6 16.275V20.6C47.9 20.6 48.8667 20.4417 49.5 20.125C50.1333 19.7917 50.45 19.2083 50.45 18.375ZM53.525 15.1C55.075 16.0167 55.85 17.2417 55.85 18.775C55.85 19.4417 55.7167 20.0833 55.45 20.7C55.2 21.3 54.8167 21.85 54.3 22.35C53.8 22.85 53.1333 23.25 52.3 23.55C51.4667 23.8333 50.525 23.975 49.475 23.975H43.675C42.6583 23.975 41.925 23.7167 41.475 23.2C41.0417 22.6833 40.825 21.7583 40.825 20.425V9.85C40.825 9.28333 40.925 8.78333 41.125 8.35C41.325 7.91667 41.6417 7.56667 42.075 7.3C42.525 7.03333 43.0583 6.9 43.675 6.9H49.4C51.0667 6.91667 52.45 7.375 53.55 8.275C54.6667 9.15833 55.225 10.3 55.225 11.7C55.225 12.15 55.1833 12.55 55.1 12.9C55.0333 13.2333 54.925 13.5333 54.775 13.8C54.625 14.0667 54.45 14.3 54.25 14.5C54.05 14.7 53.8083 14.9 53.525 15.1ZM63.86 21.325C63.86 22.325 63.6516 23.025 63.235 23.425C62.8183 23.8083 62.0766 24 61.01 24C60.0266 24 59.36 23.775 59.01 23.325C58.66 22.8583 58.485 22.1 58.485 21.05V14.9C58.485 14.3333 58.585 13.8417 58.785 13.425C58.985 12.9917 59.2766 12.6583 59.66 12.425C60.0433 12.1917 60.4933 12.075 61.01 12.075C62.2766 12.075 63.11 12.4417 63.51 13.175C64.4766 12.4417 65.41 12.075 66.31 12.075C68.06 12.075 68.935 12.9083 68.935 14.575C68.935 15.2417 68.7433 15.7833 68.36 16.2C67.9766 16.6167 67.4766 16.825 66.86 16.825C66.4933 16.825 66.1933 16.75 65.96 16.6C65.7433 16.45 65.535 16.3 65.335 16.15C65.1516 16 64.935 15.925 64.685 15.925C64.3183 15.925 64.0433 16.05 63.86 16.3V21.325ZM74.5078 24.15C73.1911 24.15 72.0995 23.6167 71.2328 22.55C70.3661 21.4667 69.9328 19.9917 69.9328 18.125C69.9328 16.225 70.3578 14.7167 71.2078 13.6C72.0745 12.4667 73.1745 11.9 74.5078 11.9C75.8578 11.9 77.1078 12.375 78.2578 13.325C78.7078 12.4917 79.4328 12.075 80.4328 12.075C81.3328 12.075 82.0328 12.275 82.5328 12.675C83.0328 13.0583 83.2828 13.775 83.2828 14.825V21.325C83.2828 22.325 83.0745 23.025 82.6578 23.425C82.2411 23.8083 81.5078 24 80.4578 24C79.3578 24 78.6328 23.6917 78.2828 23.075C77.2161 23.7917 75.9578 24.15 74.5078 24.15ZM77.9078 15.725C77.6245 15.2417 77.2578 15 76.8078 15C76.3745 15 76.0245 15.3167 75.7578 15.95C75.4911 16.5833 75.3578 17.3083 75.3578 18.125C75.3578 18.8917 75.4828 19.575 75.7328 20.175C75.9828 20.775 76.3328 21.075 76.7828 21.075C77.2495 21.075 77.6245 20.85 77.9078 20.4V15.725ZM91.5084 11.9C93.0584 11.9 94.3501 12.2167 95.3834 12.85C96.4167 13.4833 96.9334 14.175 96.9334 14.925C96.9334 15.1417 96.8417 15.3417 96.6584 15.525C96.4751 15.7083 96.2417 15.8 95.9584 15.8C95.7084 15.8 95.4334 15.7167 95.1334 15.55C94.8334 15.3667 94.5501 15.175 94.2834 14.975C94.0167 14.775 93.6667 14.5917 93.2334 14.425C92.8001 14.2583 92.3417 14.175 91.8584 14.175C91.2084 14.175 90.8834 14.375 90.8834 14.775C90.8834 15.0583 91.0501 15.2833 91.3834 15.45C91.7167 15.6167 92.2001 15.7917 92.8334 15.975C93.4834 16.1583 93.9751 16.3333 94.3084 16.5C95.5584 16.9833 96.4167 17.5083 96.8834 18.075C97.3501 18.625 97.5834 19.3583 97.5834 20.275C97.5834 20.725 97.4584 21.175 97.2084 21.625C96.9584 22.0583 96.5834 22.475 96.0834 22.875C95.5834 23.2583 94.9001 23.575 94.0334 23.825C93.1834 24.0583 92.2084 24.175 91.1084 24.175C88.9584 24.175 87.3501 23.6833 86.2834 22.7C85.7667 22.2167 85.5084 21.7167 85.5084 21.2C85.5084 20.8833 85.6084 20.6333 85.8084 20.45C86.0251 20.2667 86.3251 20.175 86.7084 20.175C87.0917 20.175 87.6751 20.3667 88.4584 20.75C89.2417 21.1167 89.9667 21.3 90.6334 21.3C91.5501 21.3 92.0084 21.075 92.0084 20.625C92.0084 20.3917 91.7667 20.2083 91.2834 20.075C90.8001 19.925 90.1667 19.75 89.3834 19.55C88.6001 19.35 87.9751 19.1 87.5084 18.8C86.7751 18.4833 86.2584 18.0917 85.9584 17.625C85.6751 17.1417 85.5334 16.5583 85.5334 15.875C85.5334 14.7083 86.0834 13.7583 87.1834 13.025C88.3001 12.275 89.7417 11.9 91.5084 11.9ZM99.5965 8.6C99.5965 8.05 99.8298 7.6 100.296 7.25C100.78 6.88333 101.455 6.7 102.321 6.7C104.138 6.7 105.046 7.33333 105.046 8.6C105.046 9.3 104.813 9.79167 104.346 10.075C103.896 10.3583 103.221 10.5 102.321 10.5C101.538 10.5 100.888 10.35 100.371 10.05C99.8548 9.75 99.5965 9.26667 99.5965 8.6ZM105.021 21.325C105.021 22.325 104.813 23.025 104.396 23.425C103.98 23.8083 103.246 24 102.196 24C101.213 24 100.538 23.775 100.171 23.325C99.8215 22.8583 99.6465 22.1 99.6465 21.05V14.9C99.6465 14.05 99.8715 13.3667 100.321 12.85C100.788 12.3333 101.405 12.075 102.171 12.075C103.071 12.075 103.771 12.275 104.271 12.675C104.771 13.0583 105.021 13.775 105.021 14.825V21.325ZM112.789 20.225C112.789 21.575 112.564 22.5417 112.114 23.125C111.664 23.7083 110.972 24 110.039 24C109.105 24 108.422 23.7417 107.989 23.225C107.555 22.6917 107.339 21.7583 107.339 20.425L107.289 9.875C107.289 9.44167 107.33 9.05833 107.414 8.725C107.514 8.39167 107.639 8.10833 107.789 7.875C107.955 7.64167 108.155 7.45 108.389 7.3C108.622 7.15 108.872 7.04167 109.139 6.975C109.422 6.90833 109.722 6.875 110.039 6.875C110.955 6.875 111.639 7.05833 112.089 7.425C112.555 7.79167 112.789 8.53333 112.789 9.65V20.225ZM132.965 20.25C132.965 21.2 132.848 21.9583 132.615 22.525C132.382 23.075 132.057 23.4583 131.64 23.675C131.24 23.8917 130.707 24 130.04 24C129.057 24 128.34 23.7417 127.89 23.225C127.457 22.6917 127.232 21.7583 127.215 20.425L127.165 11.2H125.04C123.99 11.2 123.198 11.0333 122.665 10.7C122.148 10.3667 121.89 9.775 121.89 8.925C121.89 8.40833 121.99 8 122.19 7.7C122.407 7.4 122.723 7.19167 123.14 7.075C123.557 6.94167 124.115 6.875 124.815 6.875H135.515C136.448 6.875 137.123 7.04167 137.54 7.375C137.957 7.70833 138.165 8.28333 138.165 9.1C138.165 9.65 138.04 10.0833 137.79 10.4C137.557 10.7 137.24 10.9083 136.84 11.025C136.44 11.1417 135.923 11.2 135.29 11.2H132.965V20.25ZM144.563 18.075C144.563 17.2083 144.455 16.45 144.238 15.8C144.021 15.1333 143.705 14.8 143.288 14.8C143.005 14.8 142.755 14.9667 142.538 15.3C142.321 15.6333 142.163 16.0417 142.063 16.525C141.963 17.0083 141.913 17.525 141.913 18.075C141.913 18.925 142.03 19.675 142.263 20.325C142.496 20.9583 142.83 21.275 143.263 21.275C143.696 21.275 144.021 20.9583 144.238 20.325C144.455 19.6917 144.563 18.9417 144.563 18.075ZM143.263 24.175C141.963 24.175 140.788 23.9417 139.738 23.475C138.705 23.0083 137.871 22.3083 137.238 21.375C136.621 20.4417 136.313 19.35 136.313 18.1C136.313 16.2 136.963 14.6917 138.263 13.575C139.563 12.4583 141.23 11.9 143.263 11.9C145.296 11.9 146.955 12.4583 148.238 13.575C149.521 14.6917 150.163 16.2 150.163 18.1C150.163 19.9833 149.505 21.4667 148.188 22.55C146.888 23.6333 145.246 24.175 143.263 24.175ZM157.734 18.725C157.734 19.675 158.101 20.15 158.834 20.15C159.084 20.15 159.301 20.075 159.484 19.925C159.684 19.7583 159.834 19.5333 159.934 19.25C160.034 18.9667 160.084 18.6417 160.084 18.275V14.925C160.084 14.3583 160.184 13.8667 160.384 13.45C160.584 13.0167 160.876 12.6833 161.259 12.45C161.643 12.2167 162.093 12.1 162.609 12.1C163.509 12.1 164.209 12.3 164.709 12.7C165.209 13.0833 165.459 13.8 165.459 14.85V21.35C165.459 22.3667 165.251 23.0667 164.834 23.45C164.418 23.8333 163.684 24.025 162.634 24.025C162.184 24.025 161.801 23.9833 161.484 23.9C161.168 23.8 160.909 23.6583 160.709 23.475C160.526 23.2917 160.384 23.05 160.284 22.75C159.601 23.2 158.876 23.5167 158.109 23.7C157.359 23.8833 156.518 23.975 155.584 23.975C154.401 23.975 153.551 23.5167 153.034 22.6C152.518 21.6667 152.259 20.1417 152.259 18.025C152.259 16.975 152.284 16.125 152.334 15.475C152.384 14.8083 152.459 14.2417 152.559 13.775C152.676 13.2917 152.843 12.9333 153.059 12.7C153.293 12.4667 153.559 12.3 153.859 12.2C154.176 12.1 154.584 12.05 155.084 12.05C156.018 12.05 156.684 12.225 157.084 12.575C157.501 12.925 157.709 13.45 157.709 14.15L157.734 18.725ZM173.259 21.325C173.259 22.325 173.051 23.025 172.634 23.425C172.218 23.8083 171.476 24 170.409 24C169.426 24 168.759 23.775 168.409 23.325C168.059 22.8583 167.884 22.1 167.884 21.05V14.9C167.884 14.3333 167.984 13.8417 168.184 13.425C168.384 12.9917 168.676 12.6583 169.059 12.425C169.443 12.1917 169.893 12.075 170.409 12.075C171.676 12.075 172.509 12.4417 172.909 13.175C173.876 12.4417 174.809 12.075 175.709 12.075C177.459 12.075 178.334 12.9083 178.334 14.575C178.334 15.2417 178.143 15.7833 177.759 16.2C177.376 16.6167 176.876 16.825 176.259 16.825C175.893 16.825 175.593 16.75 175.359 16.6C175.143 16.45 174.934 16.3 174.734 16.15C174.551 16 174.334 15.925 174.084 15.925C173.718 15.925 173.443 16.05 173.259 16.3V21.325Z" fill="white"/>
<path fill-rule="evenodd" clip-rule="evenodd" d="M18.5053 0.916656C27.0226 0.916656 33.9268 7.44561 33.9268 15.5C33.9268 21.7708 29.7414 27.1171 23.8689 29.1762C23.7696 29.2278 23.6646 29.2689 23.5558 29.2987L23.4093 29.3308C21.8285 29.8309 20.1723 30.0851 18.5053 30.0833C9.98805 30.0833 3.08386 23.5544 3.08386 15.5C3.08386 7.44561 9.98805 0.916656 18.5053 0.916656ZM22.993 4.62957L22.7215 5.91436C22.5466 6.74127 22.1227 7.50274 21.5008 8.10712C20.8789 8.71151 20.0856 9.13306 19.2162 9.32103L18.5978 9.4552C18.2143 9.5379 17.8786 9.75611 17.6596 10.0652C17.4406 10.3742 17.3547 10.7508 17.4196 11.1177L17.6895 12.646C17.7755 13.1359 17.7278 13.6385 17.5509 14.106C17.374 14.5736 17.0738 14.9907 16.6788 15.3179C16.2837 15.645 15.8069 15.8714 15.2934 15.9754C14.7799 16.0795 14.2469 16.0579 13.7447 15.9127L11.7553 15.3381C10.8078 15.0642 9.97824 14.5098 9.38885 13.7566C8.79946 13.0034 8.48136 12.0912 8.48137 11.1542V8.69686C7.0212 10.6193 6.21391 12.9163 6.1667 15.2828C6.11948 17.6493 6.83457 19.9735 8.21703 21.9466C9.59948 23.9198 11.5839 25.4487 13.9068 26.3302C16.2297 27.2118 18.7812 27.4043 21.2226 26.8823L20.3266 23.9189C20.2542 23.6808 20.1189 23.4639 19.9333 23.2889L18.0242 21.4821C17.7941 21.2646 17.6151 21.0037 17.4988 20.7163C17.3826 20.429 17.3318 20.1217 17.3497 19.8145C17.3676 19.5073 17.4538 19.2071 17.6027 18.9336C17.7516 18.6601 17.9599 18.4193 18.2139 18.2271L20.6273 16.4027C21.0874 16.0546 21.6433 15.8385 22.2293 15.7798C22.8152 15.7211 23.4067 15.8224 23.9337 16.0717L26.2006 17.1435C26.8818 17.4656 27.4683 17.9418 27.9081 18.5297C28.348 19.1176 28.6276 19.7991 28.722 20.5137L28.8917 21.7985C29.8771 20.3447 30.5092 18.7022 30.7422 16.9894C30.9752 15.2766 30.8034 13.5363 30.2391 11.8939C29.6748 10.2515 28.7322 8.74805 27.4791 7.49185C26.2261 6.23565 24.6939 5.25806 22.993 4.62957ZM22.5535 18.6806L20.8139 19.996L22.1155 21.2254C22.5907 21.6753 22.9564 22.2178 23.1873 22.815L23.2921 23.1183L24.1295 25.8862C24.6693 25.6237 25.1874 25.3248 25.6778 24.9937L26.1605 24.6496L25.6624 20.8754C25.6349 20.6675 25.5603 20.4677 25.4437 20.2895C25.3272 20.1114 25.1714 19.959 24.987 19.8429L24.8204 19.7525L22.5535 18.6806ZM18.5053 3.83332C16.0259 3.82966 13.6034 4.53583 11.5564 5.85895C11.5626 5.91145 11.5657 5.96541 11.5657 6.02082V11.1542C11.5654 11.4665 11.6712 11.7707 11.8674 12.022C12.0637 12.2732 12.3401 12.4583 12.656 12.5498L14.6469 13.1244L14.377 11.596C14.183 10.4959 14.4407 9.36717 15.0974 8.44068C15.7541 7.51419 16.7602 6.85986 17.9101 6.61145L18.5285 6.47874C18.8186 6.41602 19.0833 6.27525 19.2908 6.07342C19.4982 5.87158 19.6394 5.61729 19.6974 5.34124L19.9997 3.91791C19.5038 3.86142 19.0048 3.83318 18.5053 3.83332Z" fill="white"/>
</g>
<defs>
<clipPath id="clip0_207_219">
<rect width="184" height="33" fill="white"/>
</clipPath>
</defs>
</svg>
