<svg width="8" height="16" viewBox="0 0 8 16" fill="none" xmlns="http://www.w3.org/2000/svg">
<g clip-path="url(#clip0_62_4861)">
<path d="M1.65598 15.7999C1.66009 15.8516 1.68246 15.9001 1.71912 15.9368C1.75577 15.9734 1.80429 15.9958 1.85596 15.9999H4.70197C4.75364 15.9958 4.80215 15.9734 4.83881 15.9368C4.87546 15.9001 4.89786 15.8516 4.90198 15.7999V7.95393H7.00195C7.05362 7.94981 7.10214 7.92742 7.13879 7.89077C7.17545 7.85412 7.19785 7.8056 7.20197 7.75393L7.40198 5.40293C7.40444 5.37605 7.40094 5.34896 7.39175 5.32358C7.38257 5.2982 7.36793 5.27514 7.34885 5.25606C7.32976 5.23697 7.30669 5.22232 7.28131 5.21313C7.25593 5.20395 7.22884 5.20047 7.20197 5.20293H4.90198V3.50293C4.89935 3.41029 4.91564 3.31809 4.94989 3.23198C4.98414 3.14587 5.03563 3.06764 5.10117 3.00211C5.1667 2.93658 5.24491 2.88512 5.33102 2.85087C5.41714 2.81662 5.50932 2.80031 5.60196 2.80293H7.20197C7.25364 2.79882 7.30215 2.77642 7.33881 2.73977C7.37546 2.70312 7.39786 2.6546 7.40198 2.60293V0.202927C7.39786 0.151255 7.37546 0.102746 7.33881 0.0660934C7.30215 0.0294406 7.25364 0.00704594 7.20197 0.00292969H4.50195C4.12112 0.00292969 3.74403 0.0779399 3.39218 0.223679C3.04034 0.369417 2.72064 0.583028 2.45135 0.852318C2.18207 1.12161 1.96846 1.4413 1.82272 1.79314C1.67698 2.14499 1.60196 2.5221 1.60196 2.90293V5.20293H0.201965C0.150294 5.20704 0.101777 5.22944 0.0651245 5.26609C0.0284717 5.30274 0.00606938 5.35126 0.00195312 5.40293V7.75393C0.00606938 7.8056 0.0284717 7.85412 0.0651245 7.89077C0.101777 7.92742 0.150294 7.94981 0.201965 7.95393H1.65198C1.65598 7.95293 1.65598 15.7999 1.65598 15.7999Z" fill="#F9FBFC"/>
</g>
<defs>
<clipPath id="clip0_62_4861">
<rect width="7.404" height="16" fill="white"/>
</clipPath>
</defs>
</svg>
