<svg width="16" height="16" viewBox="0 0 16 16" fill="none" xmlns="http://www.w3.org/2000/svg">
<g clip-path="url(#clip0_62_4863)">
<path d="M14.5 11.235C14.5011 12.1116 14.1541 12.9527 13.5353 13.5735C12.9165 14.1944 12.0766 14.5441 11.2 14.546H4.82C3.94371 14.5465 3.103 14.1993 2.48243 13.5806C1.86185 12.9619 1.51212 12.1223 1.51 11.246V4.865C1.50894 3.98845 1.85592 3.14733 2.47471 2.52649C3.09349 1.90564 3.93345 1.55586 4.81 1.554H11.187C12.0634 1.5532 12.9042 1.90031 13.5249 2.51906C14.1455 3.13782 14.4952 3.97762 14.497 4.854V11.231L14.5 11.235ZM16 4.815C16 3.53798 15.4927 2.31327 14.5897 1.41028C13.6867 0.507294 12.462 0 11.185 0H4.815C3.53807 0.000265117 2.31351 0.507642 1.41058 1.41057C0.507646 2.3135 0.000265117 3.53806 0 4.815V11.185C0.000265117 12.4619 0.507646 13.6865 1.41058 14.5894C2.31351 15.4924 3.53807 15.9997 4.815 16H11.185C12.462 16 13.6867 15.4927 14.5897 14.5897C15.4927 13.6867 16 12.462 16 11.185V4.815ZM8.025 10.683C7.51895 10.683 7.02427 10.5329 6.60354 10.2517C6.18282 9.97048 5.85495 9.5708 5.66143 9.10321C5.46791 8.63562 5.41743 8.12114 5.51638 7.62486C5.61532 7.12857 5.85924 6.67278 6.21729 6.31516C6.57533 5.95754 7.0314 5.71415 7.5278 5.61579C8.0242 5.51743 8.53862 5.56851 9.00599 5.76258C9.47335 5.95665 9.87264 6.28498 10.1534 6.70604C10.4341 7.12709 10.5836 7.62195 10.583 8.128C10.5626 8.79969 10.2865 9.43825 9.81105 9.91315C9.3356 10.388 8.69672 10.6634 8.025 10.683ZM8.025 4.163C7.24152 4.163 6.47563 4.39529 5.82415 4.83051C5.17266 5.26573 4.66484 5.88433 4.36488 6.60812C4.06492 7.3319 3.98628 8.12838 4.13891 8.89685C4.29154 9.66532 4.66859 10.3713 5.22239 10.9255C5.77618 11.4797 6.48186 11.8573 7.25022 12.0105C8.01857 12.1637 8.8151 12.0857 9.53912 11.7863C10.2631 11.4869 10.8821 10.9795 11.3178 10.3284C11.7535 9.6772 11.9864 8.91148 11.987 8.128C11.9779 7.07976 11.5576 6.07699 10.8167 5.33546C10.0757 4.59394 9.07324 4.17292 8.025 4.163ZM12.188 2.963C11.9995 2.963 11.8153 3.01889 11.6585 3.12361C11.5018 3.22832 11.3797 3.37717 11.3075 3.5513C11.2354 3.72544 11.2165 3.91706 11.2533 4.10192C11.2901 4.28679 11.3808 4.45659 11.5141 4.58987C11.6474 4.72315 11.8172 4.81392 12.0021 4.85069C12.1869 4.88746 12.3786 4.86859 12.5527 4.79646C12.7268 4.72433 12.8757 4.60218 12.9804 4.44546C13.0851 4.28874 13.141 4.10449 13.141 3.916C13.1457 3.79498 13.1265 3.67422 13.0845 3.56063C13.0425 3.44703 12.9785 3.34282 12.8963 3.25395C12.814 3.16508 12.715 3.09329 12.605 3.04268C12.4949 2.99207 12.376 2.96364 12.255 2.959H12.188V2.963Z" fill="white"/>
</g>
<defs>
<clipPath id="clip0_62_4863">
<rect width="16" height="16" fill="white"/>
</clipPath>
</defs>
</svg>
