<svg width="33" height="33" viewBox="0 0 33 33" fill="none" xmlns="http://www.w3.org/2000/svg">
<g clip-path="url(#clip0_223_216)">
<mask id="mask0_223_216" style="mask-type:luminance" maskUnits="userSpaceOnUse" x="0" y="0" width="33" height="33">
<path d="M32.5 0.5H0.5V32.5H32.5V0.5Z" fill="white"/>
</mask>
<g mask="url(#mask0_223_216)">
<path d="M0.5 16.488C0.5 13.0434 1.86848 9.73992 4.3042 7.3042C6.73992 4.86848 10.0434 3.5 13.488 3.5C15.8116 3.49936 18.0927 4.12235 20.0935 5.30383C22.0943 6.48532 23.7415 8.18203 24.863 10.217C24.6461 10.3772 24.4537 10.5683 24.292 10.7841L22.041 13.7841C21.4644 11.967 20.3248 10.3804 18.7871 9.25366C17.2494 8.12691 15.3934 7.51834 13.4871 7.51599C11.1087 7.5189 8.82849 8.46509 7.14673 10.1469C5.46497 11.8286 4.51902 14.1087 4.51611 16.4871C4.51902 18.8654 5.46497 21.1455 7.14673 22.8273C8.82849 24.509 11.1087 25.4551 13.4871 25.458C15.3934 25.4557 17.2494 24.8472 18.7871 23.7205C20.3248 22.5937 21.4644 21.0071 22.041 19.1901L24.292 22.1901C24.4537 22.4059 24.6461 22.5969 24.863 22.7571C23.7415 24.7921 22.0943 26.4888 20.0935 27.6703C18.0927 28.8518 15.8116 29.4746 13.488 29.474C10.0437 29.474 6.74035 28.1059 4.30469 25.6707C1.86902 23.2354 0.50053 19.9323 0.5 16.488ZM6.39209 16.488C6.39209 14.605 7.13993 12.7992 8.47144 11.4677C9.80294 10.1361 11.6089 9.38806 13.4919 9.38806C15.211 9.3899 16.8712 10.0149 18.1646 11.1472C19.4579 12.2795 20.2968 13.8423 20.5259 15.546H18.356C18.1368 14.4163 17.5318 13.398 16.6445 12.6652C15.7572 11.9324 14.6427 11.5307 13.4919 11.5291C12.1785 11.5306 10.9194 12.0531 9.99072 12.9818C9.06201 13.9105 8.53967 15.1696 8.53809 16.483C8.53994 17.7963 9.06231 19.0554 9.99097 19.984C10.9196 20.9127 12.1786 21.4352 13.4919 21.437C14.6427 21.4353 15.7572 21.0338 16.6445 20.301C17.5318 19.5682 18.1368 18.5498 18.356 17.42H20.5259C20.2966 19.1236 19.4577 20.6863 18.1643 21.8186C16.871 22.9509 15.2109 23.576 13.4919 23.578C11.6106 23.578 9.80632 22.8314 8.4751 21.5021C7.14388 20.1727 6.39474 18.3693 6.39209 16.488ZM26.542 21.442C26.3963 21.442 26.2526 21.4081 26.1223 21.343C25.992 21.2779 25.8786 21.1834 25.791 21.067L22.7791 17.05C22.6573 16.8878 22.5913 16.6904 22.5913 16.4875C22.5913 16.2847 22.6573 16.0873 22.7791 15.925L25.791 11.9081C25.8786 11.7917 25.992 11.6972 26.1223 11.6321C26.2526 11.567 26.3963 11.5331 26.542 11.5331H31.562C31.7362 11.533 31.907 11.5815 32.0552 11.673C32.2034 11.7645 32.3229 11.8953 32.4009 12.051C32.4786 12.2068 32.5116 12.3812 32.4961 12.5546C32.4806 12.728 32.4171 12.8936 32.313 13.0331L29.7219 16.4871L32.313 19.941C32.4171 20.0805 32.4806 20.2462 32.4961 20.4196C32.5116 20.5929 32.4786 20.7673 32.4009 20.9231C32.3229 21.0788 32.2034 21.2097 32.0552 21.3011C31.907 21.3926 31.7362 21.4411 31.562 21.441L26.542 21.442ZM10.408 16.488C10.4087 15.6715 10.7336 14.8887 11.311 14.3114C11.8885 13.7341 12.6715 13.4096 13.488 13.4091C14.1404 13.41 14.7757 13.6177 15.3025 14.0024C15.8293 14.3871 16.2205 14.929 16.4199 15.55H13.488C13.3649 15.55 13.243 15.5743 13.1292 15.6215C13.0153 15.6686 12.9118 15.7377 12.8247 15.8248C12.7376 15.9119 12.6685 16.0153 12.6213 16.1292C12.5742 16.243 12.55 16.3649 12.55 16.488C12.55 16.6112 12.5742 16.7332 12.6213 16.847C12.6685 16.9609 12.7376 17.0643 12.8247 17.1514C12.9118 17.2385 13.0153 17.3075 13.1292 17.3546C13.243 17.4018 13.3649 17.426 13.488 17.426H16.4199C16.2205 18.0471 15.8293 18.5891 15.3025 18.9738C14.7757 19.3585 14.1404 19.5661 13.488 19.567C12.6716 19.5662 11.8887 19.2417 11.3113 18.6644C10.7339 18.0872 10.409 17.3045 10.408 16.488Z" fill="#E39042"/>
</g>
</g>
<defs>
<clipPath id="clip0_223_216">
<rect width="32" height="32" fill="white" transform="translate(0.5 0.5)"/>
</clipPath>
</defs>
</svg>
