<svg width="33" height="34" viewBox="0 0 33 34" fill="none" xmlns="http://www.w3.org/2000/svg">
<g clip-path="url(#clip0_223_204)">
<mask id="mask0_223_204" style="mask-type:luminance" maskUnits="userSpaceOnUse" x="0" y="0" width="33" height="33">
<path d="M32.5 0.5H0.5V32.507H32.5V0.5Z" fill="white"/>
</mask>
<g mask="url(#mask0_223_204)">
<path d="M18.063 32.5068C17.8972 32.5068 17.7383 32.4409 17.6211 32.3237C17.5039 32.2065 17.438 32.0476 17.438 31.8818V24.4488C17.4382 23.9563 17.5354 23.4688 17.7241 23.0139C17.9129 22.559 18.1896 22.1458 18.5381 21.7978L20.0581 20.2778C20.2816 20.0548 20.5525 19.885 20.8506 19.7811C21.1487 19.6772 21.4664 19.642 21.78 19.6778L22.8411 19.7418C22.9929 19.7724 23.1498 19.7651 23.2981 19.7204C23.4464 19.6758 23.5813 19.5952 23.6909 19.4858L26.5271 16.6488C26.7483 16.4283 27.0478 16.3045 27.3601 16.3045C27.6724 16.3045 27.9719 16.4283 28.1931 16.6488C28.303 16.7578 28.3901 16.8876 28.4495 17.0306C28.5089 17.1736 28.5394 17.3269 28.5391 17.4818C28.5395 17.6366 28.5091 17.7901 28.4497 17.9331C28.3903 18.0761 28.3032 18.2058 28.1931 18.3148L24.1521 22.3568C24.065 22.4438 23.9957 22.5472 23.9485 22.661C23.9013 22.7747 23.8772 22.8966 23.8772 23.0197C23.8772 23.1429 23.9013 23.2649 23.9485 23.3786C23.9957 23.4924 24.065 23.5958 24.1521 23.6828C24.2391 23.77 24.3423 23.8391 24.4561 23.8863C24.5698 23.9335 24.6918 23.9578 24.8149 23.9579C24.9381 23.9579 25.0601 23.9335 25.1738 23.8863C25.2876 23.8391 25.3911 23.77 25.478 23.6828L29.519 19.6408C29.8037 19.3581 30.0295 19.0217 30.1831 18.6511C30.3368 18.2805 30.4153 17.883 30.4141 17.4818C30.4151 17.0806 30.3365 16.6832 30.1829 16.3126C30.0292 15.942 29.8036 15.6056 29.519 15.3228C29.2637 15.0669 28.9646 14.8586 28.636 14.7079V10.9618C28.636 10.6884 28.6942 10.4183 28.8069 10.1693C28.9196 9.92029 29.0842 9.69823 29.2896 9.51791C29.495 9.3376 29.7366 9.20327 29.9981 9.12375C30.2595 9.04422 30.5349 9.02143 30.8059 9.05685C31.2678 9.11677 31.6922 9.34244 32 9.69199C32.3078 10.0415 32.478 10.491 32.479 10.9568L32.502 21.2898C32.5028 21.7038 32.422 22.114 32.2639 22.4967C32.1059 22.8794 31.8738 23.227 31.5811 23.5197L25.314 29.7868V31.8808C25.314 32.0466 25.2481 32.2055 25.1309 32.3227C25.0137 32.4399 24.8547 32.5058 24.689 32.5058L18.063 32.5068ZM8.31299 32.5068C8.14723 32.5068 7.98831 32.4409 7.8711 32.3237C7.75389 32.2065 7.68799 32.0476 7.68799 31.8818V29.7878L1.4209 23.5208C1.12816 23.2281 0.896092 22.8803 0.738043 22.4977C0.579995 22.115 0.499178 21.7049 0.500006 21.2909L0.522955 10.9579C0.524361 10.4922 0.694742 10.0429 1.00245 9.69345C1.31015 9.344 1.73435 9.11815 2.19605 9.05783C2.46706 9.0224 2.74242 9.0452 3.00391 9.12473C3.2654 9.20425 3.50701 9.3387 3.71241 9.51901C3.91781 9.69933 4.08235 9.92139 4.19507 10.1704C4.3078 10.4194 4.366 10.6895 4.36597 10.9629V14.7088C4.03735 14.8596 3.73825 15.0678 3.48292 15.3238C3.19836 15.6066 2.97273 15.9431 2.8191 16.3137C2.66547 16.6843 2.58688 17.0816 2.5879 17.4828C2.58671 17.884 2.66522 18.2814 2.81885 18.6521C2.97249 19.0227 3.19823 19.3591 3.48292 19.6418L7.52393 23.6838C7.61091 23.771 7.71436 23.8402 7.82813 23.8874C7.9419 23.9346 8.06385 23.9589 8.18702 23.9588C8.31003 23.9588 8.43182 23.9345 8.54542 23.8873C8.65901 23.8401 8.7623 23.7709 8.84913 23.6838C8.93627 23.5968 9.00533 23.4934 9.0525 23.3796C9.09966 23.2658 9.12379 23.144 9.12379 23.0208C9.12379 22.8977 9.09966 22.7757 9.0525 22.662C9.00533 22.5482 8.93627 22.4448 8.84913 22.3578L4.80811 18.3158C4.69828 18.2067 4.61123 18.0769 4.55201 17.9339C4.49278 17.7909 4.46234 17.6375 4.4629 17.4828C4.46251 17.328 4.49279 17.1747 4.55201 17.0317C4.61123 16.8887 4.69841 16.7589 4.80811 16.6497C5.02946 16.4292 5.32917 16.3055 5.64161 16.3055C5.95405 16.3055 6.25375 16.4292 6.4751 16.6497L9.31104 19.4858C9.42032 19.5954 9.55498 19.6763 9.70313 19.7212C9.85128 19.766 10.0082 19.7734 10.1599 19.7428L11.2219 19.6788C11.5356 19.6429 11.8535 19.6783 12.1516 19.7822C12.4498 19.8861 12.7206 20.0558 12.9441 20.2788L14.4629 21.7988C14.8114 22.1467 15.0881 22.56 15.2769 23.0149C15.4656 23.4697 15.5628 23.9573 15.563 24.4498V31.8828C15.563 31.9649 15.5469 32.0463 15.5154 32.1222C15.4839 32.1981 15.4378 32.267 15.3796 32.325C15.3215 32.3831 15.2525 32.4292 15.1765 32.4605C15.1006 32.4919 15.0192 32.5079 14.937 32.5078L8.31299 32.5068ZM11.561 14.3818C11.4405 14.3817 11.3215 14.3543 11.2131 14.3014C11.1048 14.2485 11.0098 14.1715 10.9356 14.0765C10.8613 13.9815 10.8097 13.8708 10.7847 13.7529C10.7596 13.635 10.7619 13.5128 10.791 13.3958L11.5291 10.4378C11.7004 9.75012 12.0968 9.13945 12.6553 8.70309C13.2138 8.26674 13.9023 8.0297 14.6111 8.02976H18.3921C19.1008 8.0297 19.7892 8.26674 20.3477 8.70309C20.9062 9.13945 21.3027 9.75012 21.4741 10.4378L22.2119 13.3958C22.2411 13.5128 22.2433 13.635 22.2183 13.7529C22.1932 13.8708 22.1416 13.9815 22.0674 14.0765C21.9932 14.1715 21.8982 14.2485 21.7898 14.3014C21.6814 14.3543 21.5625 14.3817 21.4419 14.3818H11.561ZM13.895 4.40683C13.7529 4.06422 13.6796 3.69695 13.6795 3.32602C13.6793 2.95509 13.752 2.58772 13.8938 2.24496C14.0356 1.90221 14.2437 1.59072 14.5059 1.32834C14.7681 1.06596 15.0795 0.857831 15.4221 0.71579C16.1142 0.429307 16.8916 0.429396 17.5837 0.715912C18.2758 1.00243 18.8259 1.55189 19.113 2.24374C19.3995 2.93572 19.3993 3.71318 19.1128 4.40512C18.8263 5.09706 18.2768 5.64691 17.585 5.93381C17.2424 6.07625 16.8749 6.14959 16.5039 6.14975C15.9453 6.14983 15.3991 5.98429 14.9346 5.67404C14.47 5.3638 14.109 4.92287 13.895 4.40683Z" fill="#E39042"/>
</g>
</g>
<defs>
<clipPath id="clip0_223_204">
<rect width="32" height="33" fill="white" transform="translate(0.5 0.5)"/>
</clipPath>
</defs>
</svg>
