<svg width="34" height="33" viewBox="0 0 34 33" fill="none" xmlns="http://www.w3.org/2000/svg">
<g clip-path="url(#clip0_223_210)">
<mask id="mask0_223_210" style="mask-type:luminance" maskUnits="userSpaceOnUse" x="0" y="0" width="34" height="33">
<path d="M33.5 0.5H0.5V32.5H33.5V0.5Z" fill="white"/>
</mask>
<g mask="url(#mask0_223_210)">
<path d="M0.739014 17.563C0.585175 17.3912 0.5 17.1686 0.5 16.938C0.5 16.7074 0.585175 16.4848 0.739014 16.313C1.02501 15.994 7.895 8.50098 16.5 8.50098C25.105 8.50098 31.976 15.994 32.262 16.313C32.4158 16.4848 32.501 16.7074 32.501 16.938C32.501 17.1686 32.4158 17.3912 32.262 17.563C31.976 17.882 25.106 25.376 16.5 25.376C7.894 25.376 1.02501 17.881 0.739014 17.563ZM9.93896 16.938C9.94108 18.6777 10.6331 20.3455 11.8633 21.5757C13.0934 22.8058 14.7613 23.4979 16.501 23.5C18.2409 23.4981 19.909 22.8062 21.1394 21.576C22.3698 20.3459 23.0618 18.6779 23.064 16.938C23.0621 15.1979 22.37 13.5297 21.1396 12.2993C19.9092 11.0689 18.241 10.3768 16.501 10.375C14.7609 10.3768 13.0927 11.0689 11.8623 12.2993C10.6319 13.5297 9.94082 15.1979 9.93896 16.938ZM11.814 16.938C11.8153 15.6952 12.3096 14.5037 13.1882 13.6249C14.0669 12.746 15.2582 12.2516 16.501 12.25C17.2393 12.2551 17.9657 12.4366 18.6199 12.7791C18.255 13.0376 17.9574 13.3798 17.752 13.777C17.5465 14.1742 17.4392 14.6148 17.439 15.062C17.4382 15.5047 17.5425 15.9412 17.7432 16.3358C17.9438 16.7304 18.2351 17.0717 18.5933 17.3319C18.9514 17.5921 19.3662 17.7637 19.8035 17.8325C20.2408 17.9014 20.6881 17.8656 21.1089 17.728C20.9234 18.8168 20.3594 19.8051 19.5164 20.5187C18.6733 21.2322 17.6055 21.6251 16.501 21.6281C15.2577 21.6267 14.0657 21.1321 13.1868 20.2528C12.3078 19.3735 11.8148 18.1813 11.814 16.938Z" fill="#E39042"/>
</g>
</g>
<defs>
<clipPath id="clip0_223_210">
<rect width="33" height="32" fill="white" transform="translate(0.5 0.5)"/>
</clipPath>
</defs>
</svg>
