<svg width="16" height="16" viewBox="0 0 16 16" fill="none" xmlns="http://www.w3.org/2000/svg">
<g clip-path="url(#clip0_62_4857)">
<path d="M16 7.7998C15.9972 8.82755 15.792 9.84467 15.3959 10.793C14.9998 11.7414 14.4207 12.6024 13.6916 13.3268C12.9626 14.0512 12.0979 14.6248 11.147 15.0148C10.1962 15.4048 9.17774 15.6036 8.15 15.5998C6.82456 15.5998 5.5195 15.2735 4.35 14.6498L0 15.9998L1.4 11.7998C0.660565 10.5956 0.263009 9.21283 0.25 7.7998C0.25 5.71122 1.07969 3.70819 2.55653 2.23134C4.03338 0.75449 6.03642 -0.0751953 8.125 -0.0751953C10.2136 -0.0751953 12.2166 0.75449 13.6935 2.23134C15.1703 3.70819 16 5.71122 16 7.7998ZM8.15 1.2498C6.40684 1.24528 4.73305 1.93232 3.49577 3.16023C2.25848 4.38814 1.55873 6.05666 1.55 7.7998C1.54253 9.18405 1.98081 10.5339 2.8 11.6498L2 14.0998L4.5 13.2498C5.35137 13.8272 6.3265 14.1965 7.34678 14.3279C8.36706 14.4593 9.40394 14.3492 10.3738 14.0063C11.3437 13.6635 12.2195 13.0975 12.9305 12.3541C13.6416 11.6107 14.168 10.7106 14.4673 9.72643C14.7667 8.74225 14.8306 7.70149 14.654 6.68807C14.4773 5.67465 14.065 4.71691 13.4502 3.89208C12.8355 3.06724 12.0356 2.39838 11.1149 1.93942C10.1943 1.48046 9.17869 1.24424 8.15 1.2498ZM12.1 9.5998C12.05 9.4998 11.9 9.4498 11.75 9.3998C11.55 9.2998 10.6 8.8498 10.45 8.7998C10.25 8.7498 10.15 8.6998 10 8.8998C9.85 9.0998 9.5 9.4998 9.4 9.6498C9.3 9.7998 9.2 9.7998 9 9.6998C8.43438 9.47098 7.91061 9.14996 7.45 8.7498C7.0474 8.36173 6.69468 7.92504 6.4 7.4498C6.3 7.2498 6.4 7.1498 6.5 7.0498C6.61212 6.94409 6.71268 6.82677 6.8 6.6998C6.88353 6.61213 6.9512 6.51063 7 6.3998C7.02498 6.34484 7.0379 6.28517 7.0379 6.2248C7.0379 6.16443 7.02498 6.10477 7 6.0498C6.95 5.9498 6.55 4.9998 6.4 4.6498C6.25 4.2498 6.1 4.3498 5.95 4.3498H5.6C5.5 4.3498 5.15 4.2998 5 4.4998C4.78301 4.7041 4.61262 4.95278 4.50045 5.22889C4.38828 5.50501 4.33696 5.80206 4.35 6.0998C4.41868 6.82956 4.69646 7.524 5.15 8.0998C5.96185 9.35201 7.10385 10.3556 8.45 10.9998C10.4 11.7498 10.4 11.4998 10.75 11.4998C11.0172 11.4481 11.2708 11.3413 11.4946 11.1864C11.7184 11.0315 11.9075 10.8317 12.05 10.5998C12.1392 10.2741 12.1563 9.93281 12.1 9.5998Z" fill="white"/>
</g>
<defs>
<clipPath id="clip0_62_4857">
<rect width="16" height="16" fill="white"/>
</clipPath>
</defs>
</svg>
