<svg width="128" height="128" viewBox="0 0 128 128" fill="none" xmlns="http://www.w3.org/2000/svg">
<g clip-path="url(#clip0_115_279)">
<path d="M128 95.5231C128 96.2231 127.978 97.7361 127.934 98.9231C127.878 101.688 127.651 104.448 127.255 107.185C126.794 109.587 126.012 111.916 124.932 114.11C123.753 116.439 122.207 118.562 120.352 120.399C118.509 122.24 116.386 123.778 114.063 124.957C111.855 126.041 109.511 126.822 107.094 127.28C104.377 127.668 101.638 127.887 98.8941 127.937C97.7111 127.981 96.1941 128.003 95.4941 128.003H32.4771C31.7771 128.003 30.2641 127.981 29.0771 127.937C26.3117 127.881 23.5525 127.654 20.8151 127.258C18.4133 126.797 16.0842 126.015 13.8901 124.935C11.5612 123.756 9.43765 122.21 7.60107 120.355C5.75993 118.512 4.22161 116.389 3.04306 114.066C1.95943 111.858 1.17807 109.514 0.720062 107.097C0.332282 104.38 0.112881 101.641 0.0630798 98.8971C0.0190798 97.7141 -0.00292969 96.1971 -0.00292969 95.4971V32.4771C-0.00292969 31.7771 0.0190798 30.2641 0.0630798 29.0771C0.119251 26.3117 0.346001 23.5525 0.742065 20.8151C1.20337 18.4133 1.98467 16.0842 3.06506 13.8901C4.24382 11.5612 5.79035 9.43764 7.64508 7.60107C9.48821 5.75993 11.6107 4.22161 13.9341 3.04306C16.1423 1.95943 18.4863 1.17807 20.9031 0.720062C23.6203 0.332303 26.3588 0.112887 29.1031 0.0630646C30.2861 0.0190646 31.8031 -0.00292969 32.5031 -0.00292969H95.5281C96.2281 -0.00292969 97.7411 0.0190646 98.9281 0.0630646C101.693 0.119254 104.453 0.346019 107.19 0.742065C109.592 1.20337 111.921 1.98467 114.115 3.06506C116.444 4.24382 118.567 5.79033 120.404 7.64507C122.245 9.4882 123.784 11.6107 124.962 13.9341C126.046 16.1423 126.827 18.4863 127.285 20.9031C127.673 23.6203 127.892 26.3588 127.942 29.1031C127.986 30.2861 128.008 31.8031 128.008 32.5031L128 95.5231Z" fill="url(#paint0_linear_115_279)"/>
<path fill-rule="evenodd" clip-rule="evenodd" d="M97.6711 30.6581C89.8484 22.8292 79.4469 18.1104 68.4037 17.3806C57.3604 16.6508 46.4284 19.9598 37.6435 26.6912C28.8587 33.4226 22.8199 43.1175 20.6519 53.9704C18.4839 64.8233 20.3345 76.0943 25.859 85.6841L19.394 109.307L43.587 102.974C50.2748 106.618 57.7708 108.525 65.3871 108.518H65.4091C74.4325 108.524 83.2548 105.853 90.7593 100.842C98.2638 95.8318 104.113 88.7075 107.567 80.3712C111.02 72.0349 111.923 62.8613 110.161 54.0117C108.398 45.1621 104.05 37.0343 97.666 30.6571L97.6711 30.6581ZM65.394 100.826C58.6019 100.826 51.9344 99.0024 46.088 95.5451L44.7071 94.7341L30.3531 98.5031L34.188 84.5221L33.2881 83.0981C28.8106 75.9806 26.826 67.5768 27.6462 59.2082C28.4665 50.8396 32.0451 42.9811 37.8192 36.8684C43.5934 30.7557 51.2356 26.7357 59.5439 25.4406C67.8523 24.1454 76.3554 25.6487 83.7162 29.7138C91.0769 33.7789 96.8777 40.1754 100.206 47.8973C103.535 55.6191 104.202 64.2283 102.103 72.3709C100.005 80.5135 95.2592 87.7275 88.6129 92.8785C81.9666 98.0295 73.7967 100.825 65.3881 100.826H65.394ZM86.1941 72.4261C85.0541 71.8561 79.4441 69.0951 78.4141 68.7261C77.3621 68.3541 76.614 68.1561 75.85 69.2961C75.086 70.4361 72.914 72.9961 72.234 73.7671C71.577 74.5341 70.8971 74.6221 69.7581 74.0521C66.3983 72.7162 63.2982 70.8027 60.5981 68.3981C58.1042 66.1001 55.9694 63.4408 54.265 60.5091C53.608 59.3691 54.199 58.7561 54.765 58.1861C55.265 57.6861 55.9051 56.8491 56.4741 56.1921C56.9486 55.618 57.333 54.975 57.614 54.2851C57.7647 53.9712 57.8355 53.6249 57.8202 53.2771C57.8048 52.9292 57.7038 52.5905 57.5261 52.2911C57.2411 51.7211 54.9621 46.1111 54.0201 43.8321C53.1001 41.6191 52.1571 41.9041 51.4561 41.8821C50.7991 41.8381 50.032 41.8381 49.265 41.8381C48.6866 41.8528 48.1175 41.9869 47.5933 42.232C47.0692 42.477 46.6013 42.8277 46.2191 43.2621C44.929 44.4826 43.908 45.959 43.2213 47.5967C42.5345 49.2345 42.1973 50.9975 42.231 52.7731C42.231 58.3831 46.307 63.7961 46.877 64.5631C47.447 65.3301 54.919 76.8351 66.359 81.7631C68.4823 82.686 70.655 83.4908 72.867 84.1741C75.1948 84.8835 77.6558 85.041 80.0551 84.6341C82.2461 84.3051 86.805 81.8731 87.747 79.2211C88.689 76.5691 88.6891 74.2681 88.4041 73.8081C88.0941 73.2801 87.328 72.9951 86.188 72.4261H86.1941Z" fill="white"/>
</g>
<defs>
<linearGradient id="paint0_linear_115_279" x1="64.0026" y1="128.003" x2="64.0026" y2="-0.00292969" gradientUnits="userSpaceOnUse">
<stop stop-color="#25CF43"/>
<stop offset="1" stop-color="#61FD7D"/>
</linearGradient>
<clipPath id="clip0_115_279">
<rect width="128" height="128" fill="white"/>
</clipPath>
</defs>
</svg>
