<svg width="17" height="12" viewBox="0 0 17 12" fill="none" xmlns="http://www.w3.org/2000/svg">
<g clip-path="url(#clip0_62_4859)">
<path d="M15.67 1.75603C15.5783 1.41842 15.4 1.11066 15.1527 0.863312C14.9053 0.615961 14.5976 0.437627 14.26 0.346026C12.1833 0.091987 10.0919 -0.0226031 7.99995 0.00302553C5.90836 -0.0216374 3.81736 0.0885913 1.73995 0.333026C1.4026 0.42935 1.09571 0.610842 0.848777 0.860052C0.601843 1.10926 0.423175 1.41781 0.329951 1.75603C0.102685 3.02559 -0.00777663 4.3133 -4.9185e-05 5.60303C-0.00838863 6.89376 0.102077 8.18253 0.329951 9.45302C0.421553 9.79063 0.599886 10.0984 0.847237 10.3457C1.09459 10.5931 1.40235 10.7714 1.73995 10.863C3.81671 11.1158 5.90804 11.2293 7.99995 11.203C10.0915 11.2277 12.1825 11.1175 14.26 10.873C14.5978 10.7819 14.9058 10.6037 15.1532 10.3563C15.4006 10.1089 15.5788 9.80085 15.67 9.46303C15.897 8.19378 16.0075 6.90641 16 5.61703C16.0149 4.32239 15.9044 3.02934 15.67 1.75603ZM6.40495 8.00303V3.20303L10.57 5.60303L6.40495 8.00303Z" fill="#F9FBFC"/>
</g>
<defs>
<clipPath id="clip0_62_4859">
<rect width="16.002" height="11.207" fill="white"/>
</clipPath>
</defs>
</svg>
